<svg width="39" height="29" viewBox="0 0 39 29" fill="none" xmlns="http://www.w3.org/2000/svg">
<path opacity="0.4" d="M37.5001 4.76807C36.6947 4.26072 35.7048 4.21584 34.861 4.64513L32.0125 6.08327C30.9592 6.61404 30.3057 7.68728 30.3057 8.88151V20.0939C30.3057 21.2882 30.9592 22.3595 32.0125 22.8941L34.8591 24.3303C35.2454 24.5294 35.6587 24.625 36.072 24.625C36.5679 24.625 37.0599 24.4845 37.5001 24.2093C38.3054 23.7039 38.7859 22.8278 38.7859 21.8677V7.11163C38.7859 6.15157 38.3054 5.27542 37.5001 4.76807" fill="url(#paint0_linear_1418_3934)"/>
<path d="M19.3826 28.9039H8.24982C3.5945 28.9039 0.344238 25.6939 0.344238 21.0985V7.87814C0.344238 3.28077 3.5945 0.0727539 8.24982 0.0727539H19.3826C24.0379 0.0727539 27.2882 3.28077 27.2882 7.87814V21.0985C27.2882 25.6939 24.0379 28.9039 19.3826 28.9039" fill="url(#paint1_linear_1418_3934)"/>
<defs>
<linearGradient id="paint0_linear_1418_3934" x1="40.2633" y1="0.687734" x2="19.7447" y2="7.2848" gradientUnits="userSpaceOnUse">
<stop stop-color="#FF820F"/>
<stop offset="1" stop-color="#FFC85C"/>
</linearGradient>
<linearGradient id="paint1_linear_1418_3934" x1="31.9821" y1="-5.13928" x2="-15.4683" y2="28.9437" gradientUnits="userSpaceOnUse">
<stop stop-color="#FF820F"/>
<stop offset="1" stop-color="#FFC85C"/>
</linearGradient>
</defs>
</svg>
